<?xml version="1.0" standalone="no"?>
<!DOCTYPE svg PUBLIC "-//W3C//DTD SVG 20010904//EN"
 "http://www.w3.org/TR/2001/REC-SVG-20010904/DTD/svg10.dtd">
<svg version="1.0" xmlns="http://www.w3.org/2000/svg"
 width="848.000000pt" height="848.000000pt" viewBox="0 0 848.000000 848.000000"
 preserveAspectRatio="xMidYMid meet">
<metadata>
Created by potrace 1.11, written by Peter Selinger 2001-2013
</metadata>
<g transform="translate(0.000000,848.000000) scale(0.100000,-0.100000)"
fill="#000000" stroke="none">
<path d="M2722 5998 l3 -1493 1493 -3 1492 -2 0 1495 0 1495 -1495 0 -1495 0
2 -1492z m2196 0 l-3 -693 -695 0 -695 0 -3 693 -2 692 700 0 700 0 -2 -692z"/>
<path d="M2722 2408 l3 -1493 1493 -3 1492 -2 0 1495 0 1495 -1495 0 -1495 0
2 -1492z"/>
</g>
</svg>
