<?xml version="1.0" standalone="no"?>
<!DOCTYPE svg PUBLIC "-//W3C//DTD SVG 20010904//EN"
 "http://www.w3.org/TR/2001/REC-SVG-20010904/DTD/svg10.dtd">
<svg version="1.0" xmlns="http://www.w3.org/2000/svg"
 width="1536.000000pt" height="1536.000000pt" viewBox="0 0 1536.000000 1536.000000"
 preserveAspectRatio="xMidYMid meet">
<metadata>
Created by potrace 1.11, written by Peter Selinger 2001-2013
</metadata>
<g transform="translate(0.000000,1536.000000) scale(0.100000,-0.100000)"
fill="#000000" stroke="none">
<path d="M4190 11868 l0 -3493 3468 2 c1907 1 3477 2 3490 2 l22 1 0 3490 0
3490 -3490 0 -3490 0 0 -3492z m1985 1572 c3 6 15 6 30 0 15 -6 27 -6 30 0 4
6 13 7 24 1 9 -5 23 -6 31 -1 7 4 24 4 36 0 14 -6 26 -5 29 1 4 5 13 6 22 0 9
-5 29 -5 45 -1 15 5 30 5 33 0 3 -5 16 -5 30 0 15 6 27 6 30 0 3 -6 15 -6 30
0 15 6 27 6 30 0 3 -6 15 -6 30 0 15 6 27 6 30 0 3 -6 15 -6 30 0 15 6 27 6
30 0 3 -6 15 -6 30 0 15 6 27 6 30 0 3 -6 15 -6 30 0 15 6 27 6 30 0 3 -6 15
-6 30 0 15 6 27 6 30 0 3 -6 15 -6 30 0 15 6 27 6 30 0 3 -6 15 -6 30 0 15 6
27 6 30 0 3 -6 15 -6 30 0 15 6 27 6 30 0 3 -5 15 -6 29 0 12 4 29 4 36 0 8
-5 21 -5 30 0 9 5 22 5 30 0 8 -5 21 -5 30 0 9 5 22 5 30 0 7 -4 24 -4 36 0
14 6 26 5 29 0 3 -5 15 -6 28 -1 12 5 34 5 49 0 16 -4 28 -4 28 1 0 5 13 5 30
0 17 -5 30 -5 30 0 0 5 13 5 29 0 15 -4 34 -4 42 0 7 5 20 5 29 0 9 -5 22 -5
30 0 8 5 21 5 29 1 9 -4 30 -5 46 -1 17 3 40 3 52 -1 13 -5 25 -4 28 1 4 6 13
7 24 1 9 -5 23 -6 30 -1 8 4 27 4 42 0 16 -5 29 -5 29 0 0 5 13 5 30 0 17 -5
30 -5 30 0 0 5 12 5 28 1 15 -5 37 -5 49 0 13 5 25 4 28 -1 3 -5 15 -6 29 0
12 4 29 4 36 0 8 -5 22 -4 31 1 11 5 20 5 24 0 3 -6 17 -6 35 -1 17 5 32 5 35
0 3 -5 16 -5 30 0 15 6 27 6 30 0 3 -6 15 -6 30 0 15 6 27 6 30 0 3 -6 15 -6
30 0 15 6 27 6 30 0 3 -6 15 -6 30 0 15 6 27 6 30 0 3 -6 15 -6 30 0 15 6 27
6 30 0 3 -6 15 -6 30 0 15 6 27 6 30 0 3 -6 15 -6 30 0 15 6 27 6 30 0 3 -6
15 -6 30 0 15 6 27 6 30 0 3 -6 15 -6 30 0 15 6 27 6 30 0 3 -6 15 -6 30 0 15
6 27 6 30 0 3 -6 15 -6 30 0 15 6 27 6 30 -1 4 -5 10 -7 15 -4 8 5 226 9 313
6 l27 -1 0 -1570 c0 -1249 -3 -1570 -12 -1571 -17 -1 -3111 -1 -3120 0 -9 1
-11 3135 -2 3144 3 3 17 2 30 -3 14 -6 26 -6 29 0z"/>
<path d="M4200 6982 c-7 -3 -10 -1176 -10 -3493 l0 -3489 3490 0 3490 0 0
3490 c0 3317 -1 3490 -17 3491 -62 2 -6945 3 -6953 1z"/>
</g>
</svg>
