<?xml version="1.0" standalone="no"?>
<!DOCTYPE svg PUBLIC "-//W3C//DTD SVG 20010904//EN"
 "http://www.w3.org/TR/2001/REC-SVG-20010904/DTD/svg10.dtd">
<svg version="1.0" xmlns="http://www.w3.org/2000/svg"
 width="1312.000000pt" height="1312.000000pt" viewBox="0 0 1312.000000 1312.000000"
 preserveAspectRatio="xMidYMid meet">
<metadata>
Created by potrace 1.11, written by Peter Selinger 2001-2013
</metadata>
<g transform="translate(0.000000,1312.000000) scale(0.100000,-0.100000)"
fill="#000000" stroke="none">
<path d="M3580 10130 l0 -2980 2980 0 2980 0 0 2980 0 2980 -2980 0 -2980 0 0
-2980z m4365 0 l0 -1385 -1375 -1 c-756 0 -1380 1 -1385 3 -7 2 -10 448 -9
1386 1 760 2 1382 3 1382 0 0 623 0 1384 0 l1382 0 0 -1385z"/>
<path d="M4527 5963 c-4 -3 -218 -5 -477 -5 l-470 1 0 -2980 0 -2979 2980 0
2980 0 0 2980 0 2979 -92 1 c-51 0 -102 0 -113 0 -11 0 -49 0 -85 1 -36 0 -71
0 -77 0 -41 -2 -93 -3 -128 -2 -22 1 -258 1 -525 1 -267 -1 -490 -1 -495 0 -6
1 -14 2 -20 1 -5 -1 -678 -2 -1495 -1 -817 0 -1491 1 -1497 0 -7 0 -30 0 -50
-1 -21 -1 -56 -1 -78 0 -62 2 -178 2 -195 2 -48 -3 -143 0 -149 4 -5 2 -11 2
-14 -2z"/>
</g>
</svg>
