<svg xmlns="http://www.w3.org/2000/svg" viewBox="0 0 72.682 65.173" width="10%">
  <path data-name="Icon awesome-code" d="M31.674 65.11l-6.927-2.253a1.564 1.564 0 01-.931-1.9L39.316 1.1A1.35 1.35 0 0141.008.06l6.927 2.253a1.564 1.564 0 01.931 1.9l-15.5 59.857a1.346 1.346 0 01-1.692 1.044zM18.729 50.827l4.94-5.907a1.659 1.659 0 00-.091-2.19L13.289 32.585l10.288-10.146a1.646 1.646 0 00.091-2.19l-4.94-5.907a1.263 1.263 0 00-1.93-.064L.435 31.464a1.645 1.645 0 000 2.228L16.802 50.89a1.254 1.254 0 001.93-.064zm37.156.076l16.363-17.2a1.645 1.645 0 000-2.228L55.884 14.266a1.272 1.272 0 00-1.93.064l-4.94 5.907a1.659 1.659 0 00.091 2.19l10.288 10.158-10.291 10.146a1.646 1.646 0 00-.091 2.19l4.94 5.907a1.264 1.264 0 001.93.076z" fill="#480eb5"/>
</svg>
