<svg xmlns="http://www.w3.org/2000/svg" viewBox="0 0 50.374 49.118" width='30%' >
  <path data-name="Icon awesome-dribbble-square" d="M10.142 21.511a15.106 15.106 0 018.512-10.492 96.489 96.489 0 015.7 8.661 58.675 58.675 0 01-14.213 1.831zm25.232-8.135a15.6 15.6 0 00-13.785-3.355 80.449 80.449 0 015.735 8.771c5.464-2.006 7.769-5.032 8.05-5.416zM15.753 36.4a15.659 15.659 0 0015.438 1.973 60.645 60.645 0 00-3.283-11.359c-6.195 2.062-10.547 6.185-12.155 9.386zm11.109-11.863c-.382-.855-.81-1.7-1.248-2.544a57.63 57.63 0 01-15.787 2.128c0 .153-.011.307-.011.46a14.75 14.75 0 003.947 10.021 23.74 23.74 0 0113.099-10.065zm3.924 1.787a62.791 62.791 0 012.98 10.679 14.971 14.971 0 006.589-10.043 22.967 22.967 0 00-9.569-.636zM28.5 21.018c.54 1.074.933 1.952 1.349 2.938a36.708 36.708 0 0110.7.482 14.62 14.62 0 00-3.474-9.33 20.53 20.53 0 01-8.579 5.91zM50.374 5.263v38.593a5.333 5.333 0 01-5.4 5.263H5.4A5.333 5.333 0 010 43.856V5.263A5.333 5.333 0 015.4 0h39.58a5.333 5.333 0 015.394 5.263zm-7.2 19.3A17.794 17.794 0 0025.187 7.017 17.794 17.794 0 007.2 24.559a17.794 17.794 0 0017.987 17.542 17.794 17.794 0 0017.991-17.542z" fill="#fff"/>
</svg>
