<svg xmlns="http://www.w3.org/2000/svg" viewBox="0 0 50.04 49.593" width='30%'>
  <path data-name="Path 9" d="M50.04 5.313v38.969a5.341 5.341 0 01-5.367 5.312H31.15v-.086a1.2 1.2 0 01-1.3-1.267c0-.842.033-3.608.033-7.056a6.13 6.13 0 00-1.753-4.762c5.782-.637 11.858-2.812 11.858-12.707a9.938 9.938 0 00-2.657-6.917 9.339 9.339 0 00-.261-6.818 2.1 2.1 0 00-.575-.06c-.937 0-3.045.345-6.538 2.7a24.712 24.712 0 00-13 0c-4.965-3.329-7.147-2.64-7.147-2.64a9.135 9.135 0 00-.228 6.818 9.9 9.9 0 00-2.677 6.911c0 9.875 6.069 12.09 11.844 12.733a5.444 5.444 0 00-1.646 3.449c-1.492.657-5.253 1.8-7.575-2.142a5.444 5.444 0 00-3.982-2.653s-1.184-.013-1.184.484c0 .232.254.577 1 1.081 0 0 1.713.8 2.891 3.767 0 0 1.532 5.007 8.759 3.455.007 2.142.027 3.767.027 4.377a1.232 1.232 0 01-1.325 1.287v.046H5.36A5.339 5.339 0 010 44.282V5.313A5.339 5.339 0 015.36.001h39.314a5.341 5.341 0 015.366 5.312z" fill="#fff"/>
</svg>
