<svg xmlns="http://www.w3.org/2000/svg" viewBox="0 0 50.989 49.324" width='30%'>
  <g data-name="Group 40" fill="#fff">
    <path data-name="Path 31" d="M45.487.003h-37.6c-2.491 0-5.015-.156-6.746 2.083C-.283 3.928.022 6.311.022 8.486v32.727c0 2.39-.232 4.8 1.728 6.613 1.83 1.69 4.222 1.423 6.5 1.423h33.028a32.788 32.788 0 005.15-.069 5.44 5.44 0 004.51-5.228c.016-.522 0-1.047 0-1.57V9.938c0-1.632.1-3.3-.012-4.931A5.424 5.424 0 0045.487.003zm-3.5 32.98c0 5.27-4.406 8.992-9.471 9q-5.466.009-10.932 0c-1.18 0-2.362.015-3.542 0a9.137 9.137 0 01-6.776-3.02c-2.63-2.954-2.279-6.642-2.279-10.288 0-3.492-.015-6.985 0-10.477a9.136 9.136 0 019.055-9.215c3.265-.041 6.533 0 9.8 0 3.483 0 7.295-.484 10.309 1.634a9.128 9.128 0 013.838 7.366c.015.976 0 1.952 0 2.928v12.072z"/>
    <path data-name="Path 32" d="M32.987 11.983H19.934a18.729 18.729 0 00-2.892.076 6.056 6.056 0 00-4.979 4.979 18.494 18.494 0 00-.076 2.893V30.45c0 .844-.018 1.69 0 2.533a6.087 6.087 0 004.155 5.71 10.613 10.613 0 003.329.29h4.924c2.844 0 5.694.053 8.537 0a6.109 6.109 0 005.361-3.2 7.8 7.8 0 00.694-3.822v-10.3c0-3.086.393-6.415-2.438-8.51a6.016 6.016 0 00-3.562-1.168zm-1.41 17.9a7.588 7.588 0 01-8.378 2.662 7.571 7.571 0 01-5.152-7.013 7.581 7.581 0 014.963-7.172 7.6 7.6 0 018.212 2.138 7.593 7.593 0 01.355 9.385zm3.63-12.36a1.49462579 1.49462579 0 11-2.9-.725 1.5 1.5 0 012.9.725z"/>
    <path data-name="Path 33" d="M29.997 24.753a4.54 4.54 0 01-4.114 5.155 4.548 4.548 0 01-4.83-4.311 4.529 4.529 0 014.494-4.674 4.518 4.518 0 014.45 3.83z"/>
  </g>
</svg>
