<svg xmlns="http://www.w3.org/2000/svg" viewBox="0 0 50.759 49.328" width='30%'>
  <path data-name="Icon awesome-linkedin" d="M47.133 0H3.614A3.59 3.59 0 000 3.556v42.216a3.59 3.59 0 003.614 3.556h43.519a3.6 3.6 0 003.626-3.556V3.556A3.6 3.6 0 0047.133 0zM15.341 42.281H7.818V18.74h7.534v23.541zm-3.762-26.756a4.241 4.241 0 110-8.478 4.241 4.241 0 110 8.478zm31.962 26.756h-7.523V30.83c0-2.731-.057-6.243-3.909-6.243-3.92 0-4.521 2.973-4.521 6.045v11.649h-7.522V18.74h7.217v3.215h.1a7.968 7.968 0 017.127-3.8c7.614 0 9.03 4.878 9.03 11.22z" fill="#fff"/>
</svg>
