<svg xmlns="http://www.w3.org/2000/svg" viewBox="0 0 618.6 274.38">
  <defs/>
  <g data-name="Layer 2">
    <g data-name="Layer 1">
      <g data-name="Group 48">
        <g fill="none" stroke="#480eb5" stroke-miterlimit="10" stroke-width=".59" data-name="Icon feather-mail">
          <path d="M189.45 11l14.26 4c1 .28 1.62 1.07 1.42 1.76L203 24.35c-.2.7-1.15 1-2.14.75l-14.25-4c-1-.28-1.62-1.07-1.43-1.76l2.13-7.54c.2-.72 1.15-1.05 2.14-.8z" data-name="Path 34"/>
          <path d="M205.13 16.82L195 18.69l-7.67-6.92" data-name="Path 35"/>
        </g>
        <g fill="none" stroke="#babbbf" stroke-miterlimit="10" stroke-width=".59" data-name="Icon feather-mail-2">
          <path d="M181.35 164.37l18.58-4.45c1.28-.31 2.5.17 2.72 1.08l2.35 9.81c.21.9-.65 1.88-1.93 2.19l-18.58 4.45c-1.28.31-2.5-.18-2.72-1.08l-2.35-9.81c-.21-.91.65-1.89 1.93-2.19z" data-name="Path 34-2"/>
          <path d="M202.65 161l-10.24 8.5-13-2.94" data-name="Path 35-2"/>
        </g>
        <g fill="none" stroke="#480eb5" stroke-miterlimit="10" stroke-width=".59" data-name="Icon feather-mail-3">
          <path d="M437 81.92l11.51 1.67c.8.11 1.37.66 1.29 1.22l-.8 6.08c-.08.56-.79.92-1.58.8L435.86 90c-.79-.12-1.37-.66-1.29-1.22l.88-6.08c.08-.53.79-.89 1.55-.78z" data-name="Path 34-3"/>
          <path d="M449.83 84.81l-7.7 2.5-6.68-4.58" data-name="Path 35-3"/>
        </g>
        <g data-name="Group 45">
          <path fill="#e9e9ec" d="M75.43 140.74S-23.64 118.33 41.77 197c0 0-42.42-7.33-41.76 15.17s36.38 31.09 53.59 30.43 21.83-101.86 21.83-101.86z" data-name="Path 74"/>
          <path fill="#d0afaa" d="M61.62 263.17c-2.84 4.43-5.45 4.51-10.51.29q.75-3.13 1.51-6.25c3.36.35 6 2.58 9.06 3.63z" data-name="Path 75"/>
          <path fill="#d0afaa" d="M127.11 262.1c-2.07.83-2.19 3.65-4.57 4.5-2.54.91-5.23-.71-7.47-1.7.05-1.93.07-3.85.08-5.78 3.66-.07 7.39.69 10.93-.86-.27 1.45.8 2.53 1.03 3.84z" data-name="Path 76"/>
          <path fill="#ccccd0" d="M67.67 52.77c1.14 1.38-.13 2.68-.2 4a167.59 167.59 0 00.32 17.93C68 78.43 69 83.28 69.53 87c.85 6.16.81 8.4 1.33 14.56a12.69 12.69 0 01-2.09 4.69A32.8 32.8 0 0158.7 97c-2.08-3-1.07-6.47-.48-9.69 2-10.94 4.42-21.79 8.42-32.22.29-.82.68-1.56 1.03-2.32z" data-name="Path 77"/>
          <path fill="#fbd1c5" d="M85.54 37a21.1 21.1 0 009.54-2.55c1.72-1 2.85-2.23 1.55-4.43a4.82 4.82 0 01-.07-3.89c.35-1.21.92-2.22 2.4-2a2.29 2.29 0 012 2.51c-.07 2-.4 4-.59 5.95-.28 3-.17 6 1.77 8.55 0 1.68 0 3.37.08 5.06-2-.5-3.25-2.17-5-3.1-3.66-1.94-7.32-3.81-11.69-2.91 0-1.03 0-2.09.01-3.19z" data-name="Path 78"/>
          <path fill="#480eb5" d="M119.37 130.15c2.25 21.18 3.95 40.26 5.55 61.49.79 10.54 1.89 21.06 2.74 31.59.81 10 2.82 21.8 1 31.76-.85 4.63-4 4.94-8.36 5.1-5.88.23-6.77-.72-8.45-5.76-3.1-9.28-4.85-18.83-6.49-28.46-3.46-20.39-5.62-40.42-10.76-60.51-2.85 10.45-4.77 21.09-7.3 31.62-2.2 9.13-5.65 17.72-8.85 26.51-3.58 9.88-7.1 19-11.09 28.76 0 0-1.81 9.62-6.23 8.85s-9-3.12-10.49-4.77c-1.87-2.12 1.33-11.72 1.77-14.76.78-5.35 1.73-10.75 2.82-16 2-9.92 6.86-18.2 10.47-27.5s2.44-20.54 2.83-30.42c.43-10.73.32-21.7 1.33-32.38z" data-name="Path 79"/>
          <path fill="#e9e9ec" d="M141.77 72.67c-14.38-7.2-26.37-16.9-39.4-26.5C92.4 38.82 80 33 67.85 52.71c-2.32 3.76-.56 19.68-.09 24.83.41 4.61 4.95 25.62 1 28.67 4.42 6.45-3.54 21.07.48 28.14 3.11 5.48 11.68 4 17.45 3.84 12.22-.42 22.26-2 32.51-7.93 1.55-10.72 2.57-21.78 1.05-32.61-7.79 2.09-23.47-23.55-20.12-29.76 2.09.5 5.24 7.78 6.88 9.44 3 3 11.93 6.2 13 10.28 0 .57 24 3.28 26.85 2.18z" data-name="Path 80"/>
          <path fill="#040404" d="M108.67 31.24l-.2 1.84c-1.27 0-2.23.47-2.18 2 0 1.23 1 1.21 1.85 1.2v1.23c-.27 4.32-1.84 5.29-6 3.7-1.94-2.57-2.05-5.53-1.77-8.55.19-2 .52-4 .59-5.95a2.28 2.28 0 00-2-2.51c-1.49-.22-2.06.79-2.41 2a4.82 4.82 0 00.07 3.89c1.3 2.2.17 3.4-1.55 4.43A21.1 21.1 0 0185.54 37c-3.48-4.89-6.71-13.77-6.62-19.77 0-2.51 3.15-6.1 3.15-6.1s-4.44-1.73 3.71-8.1a5.94 5.94 0 011.84-1C92.34.65 99 2.75 103.47 4.59c2.09-2.31 3.63 7.85 2.81 10.07l-4.53 1.24c2.9 2.23 2.54 5.08 2.2 7.89-.72 5.98-.74 5.98 4.72 7.45z" data-name="Path 81"/>
          <path fill="#fbd1c5" d="M177.62 80.8c-1.69-1.34-.72-3.43-1.43-5.07a28.23 28.23 0 01-1.1-4A42.35 42.35 0 00187 64.15c.47-.45 1-1.17 1.68-.73s.27 1.17.12 1.8c-.63 2.82-.62 2.83 2.12 2.2s5.48-1.27 8.21-1.93c.57-.14 1.23-.43 1.64.05s-.15 1.07-.44 1.53a24.35 24.35 0 01-16.14 11.48c-2.31.45-4.34 1.63-6.57 2.25z" data-name="Path 82"/>
          <path fill="#ccccd0" d="M120.26 97.65c-2.92.78-5.08-.42-7.35-2.73-4.14-4.2-6.84-9.14-10.25-14-1-1.36-1.43-3.81-2.29-5.22a7.38 7.38 0 01-.23-7.86c1.57-.18 2 1 2.52 1.81 3.63 6.59 9 9.87 15 14.35a5.76 5.76 0 012.59 3.62z" data-name="Path 83"/>
          <path fill="#040404" d="M140.09 269.12c-4.06 3.33-15.57 5.45-20.71 5.24-6.33-.26-5.57-4.46-4.31-9.46 2.24 1 4.93 2.61 7.47 1.7 2.38-.85 2.5-3.67 4.57-4.5 2.34.75 15.63 3.06 12.98 7.02z" data-name="Path 84"/>
          <path fill="#040404" d="M64.56 266.17c1.59 2.38 11.26 2.69 11 5-.38 3.55-11.08 3-12.88 3-2.37-.06-11.88.57-13.54-1.57s.07-7.64 2-9.11c5.06 4.22 7.67 4.15 10.51-.29a11.65 11.65 0 002.91 2.97z" data-name="Path 85"/>
          <path fill="#fbd1c5" d="M108.67 31.24c-5.46-1.47-5.44-1.47-4.72-7.45.33-2.81.7-5.66-2.2-7.89l4.53-1.24c2.24 2 2.5 4.84 2.39 7.49a9.86 9.86 0 001.43 6.11c1.22 1.87.9 2.86-1.43 2.98z" data-name="Path 86"/>
          <path fill="#fbd1c5" d="M108.14 36.24c-.89 0-1.82 0-1.85-1.2-.05-1.49.91-1.92 2.18-2-.02 1.1.31 2.2-.33 3.2z" data-name="Path 87"/>
          <circle cx="106.74" cy="23.38" r=".5" fill="#040404" data-name="Ellipse 3"/>
          <path fill="none" stroke="#040404" stroke-miterlimit="10" stroke-width=".31" d="M105.99 22.1l2.27.05" data-name="Line 3"/>
          <path fill="#ccccd0" d="M177.61 80.8c-.35.94-20.92 5.19-30.88 9-1.11-1.58-2.34-3.13-3.36-4.77-2.1-3.4-1.77-8.44-1.77-12.34 8.12 0 16.68-1.89 24.75-2.85 3-.35 7-1.94 8.58 1.4 0 .04 3.07 8.63 2.68 9.56z" data-name="Path 88"/>
        </g>
        <g data-name="Group 46">
          <path fill="#d3d2d3" d="M426.85 16.72l-34.92-4.8c.16 1-1 5.47-.95 6.32s1.12.84 1.43.84 4.25-.2 4.25-.2l30.2-2.12z" data-name="Path 89"/>
          <path fill="#e9e9e9" d="M396.64 18.85c-.79-1.3-1.45-2.42-1.79-3a.26.26 0 01.1-.36.23.23 0 01.14 0c3.9.18 31.46 1.38 31.76 1.27a.18.18 0 01-.11.22s-23.22 9.39-24.61 9.27c-.88-.12-3.57-4.25-5.49-7.4z" data-name="Path 90"/>
          <path fill="#e9e9e9" d="M426.81 16.69L388.68 5.56l3.22 6.33z" data-name="Path 91"/>
        </g>
        <g data-name="Group 47">
          <path fill="#e9e9ec" d="M523.21 209.36s82.9 7.22 95.39-22.9c-1.72-31.59-46.78-12.24-47.51-8.57 0 0 7.1-38.44-21.31-40.4s-26.57 71.87-26.57 71.87z" data-name="Path 93"/>
          <path fill="#fbd1c5" d="M518.3 189.32s1.67 25.43 1.85 26.28c.62.86 7.29.87 7.35.55s4.18-27.09 3.87-27.66-13.07.83-13.07.83z" data-name="Path 94"/>
          <path fill="#fbd1c5" d="M543.09 191.05l11.77-1.7s-1.56 25-3 27.23-6.54.63-6.94-.34-1.83-25.19-1.83-25.19z" data-name="Path 95"/>
          <path fill="#fbd1c5" d="M549.91 70.93c-1.73-3.79 7.41-6.64 9.57-8.5 2.52 8.11 3.61 16.47 5.52 24.74 2 8.62 3.39 16.67 1.79 25.48-1.14 6.31-.43 14.68-3.31 20.35-.48.94-2.32 4.38-3.5 4.5-1.54.16.2-5.71-.21-7.49-.75.93-.54 2.29-1.77 3.13-1-5.11 1.64-10.15 1.82-15.23s-1.26-10.4-2-15.53-.7-10.67-2-15.86c-1.5-5.36-3.9-10.45-5.91-15.59z" data-name="Path 96"/>
          <path fill="#fbd1c5" d="M512.67 48.92c.32 3.56.57 6.44 1 10.26a19.57 19.57 0 00.73 2.67c-5.41-.34-10.83-.34-16.25-.48-4.59-.12-7-3.7-9.42-6.9a115.64 115.64 0 01-15.05-25.26c-.5-1.18-1.57-1.88-2.3-2.86-2.86-3.85-4.48-8.06-3.91-13.18 2.79.64 3.9 3.53 6.21 5 .76-1-.35-2.05 0-3.12 1.31.25 1.59 1.27 1.94 2.18a33.35 33.35 0 011.46 6.09c.89 5 3.88 8.83 7.09 12.47a103.35 103.35 0 0011.77 11.81 5 5 0 003.35 1.24c4.46.06 8.92.84 13.38.08z" data-name="Path 97"/>
          <path fill="#040404" d="M550.52 42c-.24.93-.6 1.75-1.75 2-3.47.61-6.86 1.74-10.43 1.88-2.07-.34-2.31-1.86-2.27-3.55v-2.18c.44-1.36.83-2.61 2.26-3.47a2.86 2.86 0 00.46-4.06c-1.37-1.27-2.23 0-3.06.79-1.16 1.13-1.75.53-1.75-.65 0-2.75-.86-5.44-.41-8.19.09-.1.26-.25.25-.28-.16-.24-.35-.15-.52 0-2.63.75-5.26 1.6-8.06 1l-1.78-.07c-.36.26-1.38.36-.28 1 .47.26 1.36-.29 1.48.67-.69.71-2.07-.48-2.39.85-.26 1.11 1.28.66 1.5 1.27-.29 1.1-1.82.1-2 1.57a25.25 25.25 0 00.07 9.05c.43 2 1.22 3.9 3.75 4.09l-.32.78a30 30 0 01-8.48-2.5c-1.23-.64-1.62-1.21-.5-2.36a8.29 8.29 0 002.37-3.28c-1.65.27-2.28 2-3.73 2.07-.16-.62.35-.79.63-1 3.2-2.77 4.86-6.39 5.87-10.39.12-.48.25-1 .4-1.46 2.42-8.19 11.24-10.56 18.22-5.51 3.69 2.68 4.84 6.21 6 10a10.79 10.79 0 002 4c1.95 2.3 3.31 4.81 2.47 7.93z" data-name="Path 98"/>
          <path fill="#252525" d="M544.88 216.25a13.2 13.2 0 006.94.34c-.28 4.38-1 8.73-.81 13.14-.35 6-3.26 10.11-8 11.35-.82.21-1.79.76-2.47.07s.06-1.59.33-2.36c1.14-3.18 3-6.08 3.52-9.5.72-4.29.39-8.69.49-13.04z" data-name="Path 99"/>
          <path fill="#fbd1c5" d="M536.07 42.31c0 1.69.2 3.21 2.27 3.55 1.82 2.54-6.42 5.42-8.06 5.53s-5.94-1.39-6.15-3.12c-.12-1 2.31-3.49 1.47-4.59 0 0 9.23-3.33 10.47-1.37z" data-name="Path 100"/>
          <path fill="#d0afaa" d="M536.07 43c-1.6-1.07-13.29 7.68-10.41.51 3.92 0 7.62-.59 10.52-3.56-.02.72-.09 2.31-.11 3.05z" data-name="Path 101"/>
          <path fill="#fbd1c5" d="M538.84 32.6c-1.37-1.27-2.23 0-3.06.79-1.16 1.13-1.75.53-1.75-.65 0-2.75-.86-5.44-.41-8.19l-.27-.28c-2.63.75-5.26 1.6-8.05 1l-1.78-.07c-.36.25-1.39.36-.29 1 .47.26 1.36-.29 1.49.67-.7.71-2.08-.49-2.39.84-.27 1.11 1.27.67 1.49 1.28-.29 1.1-1.82.09-2 1.57a25.48 25.48 0 00.07 9.05c.43 2 1.23 3.89 3.75 4.09 3.92 0 7.61-.59 10.52-3.55.45-1.36.84-2.61 2.27-3.47a2.86 2.86 0 00.41-4.08zm-16 4.63l4.14.56c-1.44.83-2.86 1.33-4.1-.56z" data-name="Path 102"/>
          <path fill="#fbd1c5" d="M533.35 24.27c.18-.16.37-.24.52 0 0 0-.16.18-.25.28z" data-name="Path 103"/>
          <path fill="#480eb5" d="M527 37.79c-1.48.83-2.9 1.33-4.14-.56z" data-name="Path 104"/>
          <circle cx="529.11" cy="30.28" r=".5" fill="#040404" data-name="Ellipse 4"/>
          <path fill="#040404" d="M529 28a4.14 4.14 0 012.21.53 3.91 3.91 0 01-1.14-.11A4 4 0 01529 28z" data-name="Line 4"/>
          <path fill="#252525" d="M520.1 215.14s.46 8.38-.27 9.52S508 236 508.4 237.31s15.92-3 15.83-5.55c0 0-.14 1.59 1.27 1.48s1.41-.92 1.51-1.71.54-15.69.54-15.69-5.31-.05-7.45-.7z" data-name="Path 105"/>
          <path fill="#480eb5" d="M518.22 90.32l25.91-.92a.49.49 0 01.49.33c1.15 3.3 10.14 29.61 11.12 49 1 20.75 1 21.68 1 23.76s-1.13 24.6-1.06 27.46a.49.49 0 01-.28.46c-2.55 1.26-14.1 2.79-15.68 1-1.23-1.42-4.08-16.34-5.44-23.81a.5.5 0 00-.58-.4.49.49 0 00-.41.46c-.4 7.4-1.22 21.83-1.49 22.13s-14.16 1.32-15.67.34-8.51-75.83 1.63-99.52a.49.49 0 01.46-.29z" data-name="Path 106"/>
          <path fill="#e9e9ec" d="M512.67 48.92s6.64-2.35 10.43-2c0 0-3.27 4-1 8.46 0 0 .82 4 5.39-1.47 0 0 1.26 3.88 3.67 3.92s12.61-3.31 10.21-10c0 0 13.85-.37 18.14 14.57-1.53 3.67-9.19 4-9.68 8.51s-5.08 15.55-5.26 18.67-11.21 3.61-13.71 3.73c-6.27.31-11.21-3-12.92-3 0 0 .37-6.6-.25-9.84 0 0-1.18-4.18-2-5-1.53-1.43-2.26-5.45-1-8.08 0 0 1.23-4-.15-5.6s-2.95-10.46-1.87-12.87z" data-name="Path 107"/>
        </g>
        <path fill="none" stroke="#480eb5" stroke-linecap="round" stroke-miterlimit="10" stroke-width="1.09" d="M227.51 62.11a140.87 140.87 0 0038.18-13.49C279.35 41.39 307.2 21 289.56 3.74c-6.16-6-14.84-2.79-19.19 3.65-11.3 16.74 9.29 31.58 23.21 35.16 24.88 6.41 50.56-3.57 74.53-10l5.09-1.35"/>
      </g>
    </g>
  </g>
</svg>
