<svg xmlns="http://www.w3.org/2000/svg" viewBox="0 0 438.48 341.87">
  <defs/>
  <g data-name="Layer 2">
    <g data-name="Layer 1">
      <path fill="none" stroke="#480eb5" stroke-linecap="round" stroke-miterlimit="10" stroke-width="2.53" d="M53.89 12.22c15.5 32.34 60.16 98.78 101.78 59.49C170.21 58 163.51 37.59 149 26.9 111.26-.84 75 45.51 65.36 77.41 48.19 134.47 68.93 194.89 81.55 251"/>
      <path fill="#ccccd0" d="M.64 274.48L0 295.36s.14 5.44 3.19 7.32c4.44 2.73 127.08 38.48 127.08 38.48a24.05 24.05 0 009.57.38c4.69-.94 294.89-100.61 294.89-100.61s3.75-1.51 3.75-5.07-.7-22.79-.7-22.79z"/>
      <path fill="#fbd1c5" d="M133.27 90.57s12-18.58 10.33-28.72-8.83-43 17.64-44.3 44 19.43 44 19.43-5.35 35.39-5.73 39-26.63 19.71-26.91 21.68-6.2 28.3-6.2 28.3l-33.22-23.09z"/>
      <path fill="#e9e9ec" d="M227.5 210.05l70.39-27.03-12.53 42.65-57.86-15.62z"/>
      <path fill="#e9e9ec" d="M1.69 271.74a6.75 6.75 0 00-.9 5.53 4.06 4.06 0 002.78 2.91l121.94 37.24s7 2.91 13.71 1.41 294.7-100.62 294.7-100.62 5.53-1.42 3.4-7.89a3.78 3.78 0 00-2.46-2.4L364.28 186l12.35-50.49s-.65-1.6-2.81-.75-66.73 23.93-66.73 23.93-4.69 1.69-5.44 4.6c-.28 1.08-2.5 9.79-5.18 20.28l-67 16.26 21.2-12.61 1.22-7.65-8-2.53-9.71-5.49s-19.43-51.53-25.9-59-33.93-16-35.62-14.78-1.68 6.76-6.9 9.43a2.19 2.19 0 00-1.21 1.82c-.12 2.13-.34 6.37-.34 9 0 0-1.9-8-7.11-10.41s-23.16-9.86-23.86-16.9c0 0-46.27 14.83-53.36 31.4-6.21 14.51 4.84 70.53 27.74 110.7L3.92 270.05a4.52 4.52 0 00-2.23 1.69z"/>
      <path fill="#040404" d="M156.55 28s11 6.2 18.58 5.63 11.26-3.38 18.3-2.25 9.29 5.91 12.39 5.63 23.18-17.22-3.1-28.47c-13.79-5.91-14.36 4-32.94-8.16-18.3-2.53-19.71 8.45-19.71 8.45s-20-.85-16.89 37.44c3.38 9.3 6.76 3.1 7 15.77 1.12 7 4.78 5.35 4.78 5.35s2 14.08 6.2 18.58 42 23.84 48.33-10a5.16 5.16 0 01-4.88 1.13c-3.1-.75-1.31-6.2-10.89-7.32s-9.38 5.16-17.55 3.38a15.12 15.12 0 01-11.92-15.3c.51-5.95 7.83-20.78 2.3-29.86z"/>
      <path fill="none" stroke="#ccccd0" stroke-linecap="round" stroke-linejoin="round" stroke-width="8" d="M247.83 179.93l-3.15 19.74"/>
      <path fill="#fbd1c5" d="M251.88 179.62c18.92.84 33.19 13.67 31.09 18.15s-22.53-3.94-22.53-3.94c4.37 3.94 5.78 12.11-3.37 12.39a51.44 51.44 0 00-10.85-1.68c-13.94-.54-21.22 5.62-21.22 5.62v-.35s-.42-20.76-.14-20.9c7.62-3.81 13.39-4.7 17.47-4.48a16.23 16.23 0 018 2.36z"/>
      <path fill="none" stroke="#ccccd0" stroke-linecap="round" stroke-linejoin="round" stroke-width="4" d="M374.85 134.4l-72.74 25.62-17.73 65.33-62.7-14.93"/>
      <path fill="none" stroke="#ccccd0" stroke-linecap="round" stroke-linejoin="round" stroke-width="8" d="M221.31 189.4v19.99"/>
      <path fill="none" stroke="#ccccd0" stroke-linecap="round" stroke-linejoin="round" stroke-width="4" d="M284.38 225.35l76.2-28.54"/>
      <ellipse cx="332.79" cy="182.01" fill="#ccccd0" rx="4.55" ry="3.1" transform="rotate(-77.99 332.76294618 182.01490137)"/>
      <path fill="#ccccd0" d="M172.6 97.66c-1.42.47-3.86 7.74-7 9.48a3.41 3.41 0 00-1.71 2.49 34.35 34.35 0 00.35 8.35s-2.44-8.82-7.88-11-22.9-10-23.09-16.43c0 0-12.67 4.41-13.7 5.26s24.59 33.41 48.05 28.34 20-21.42 19.24-22.8-12.72-4.21-14.26-3.69z"/>
      <path fill="#fbd1c5" d="M142.17 40.4c2.93-15.2 10.36-4.07 6.94 7.23a3.66 3.66 0 01-3 2.61q-6.03.9-3.94-9.84z"/>
      <circle cx="194.92" cy="51.21" r="2.11" fill="#040404"/>
      <path fill="#040404" d="M192.13 44.16a7.12 7.12 0 012.59-.07 9.95 9.95 0 014.41 1.79 7.18 7.18 0 011.87 1.86 7.18 7.18 0 01-2.6.07 9.85 9.85 0 01-2.31-.63 10.54 10.54 0 01-2.1-1.16 7.31 7.31 0 01-1.86-1.86z"/>
      <circle cx="174.18" cy="47.66" r="2.11" fill="#040404"/>
      <path fill="#040404" d="M171.05 42.31a7 7 0 012.4-1 10 10 0 014.75.09 7.21 7.21 0 012.36 1.08 7 7 0 01-2.4 1 9.87 9.87 0 01-4.75-.1 7.21 7.21 0 01-2.36-1.07z"/>
      <path fill="#ccccd0" d="M156.48 238.37s.4-12.6 3-15.61 5.26-12.57 2.26-18-8.45-7.14-13-12.77-8.63-20.46-13.7-19.71-9.34 5-5.77 19.1c2.35 9.29 7.09 12.62 11.22 14.88s8.58 19.57 8.4 30.64z"/>
      <path fill="#480eb5" d="M165.24 239.71c.22-6.37-32.69-7.5-32.91-1.13l-.14 1.38a6.64 6.64 0 10.71 13.23c3.56 6.61 9.42 9.92 17.74 9.71 12.19-.9 15.65-10.39 14.6-23.19zm-33.19 3.42a21.91 21.91 0 00.42 8c-5.98.19-6.19-9.03-.42-8z"/>
      <path fill="#040404" d="M163 240.34c-.14 3.56-28.64 2.7-28.5-.86.2-4.87 28.71-4 28.5.86z"/>
    </g>
  </g>
</svg>
